# xmcd
#
# Track frame offsets: 
#        150
#        19440
#        37313
#        63240
#        96775
#        119165
#        134272
#        148840
#        162302
#        176402
#
# Disc length: 2466 seconds
#
# Revision: 0
# Processed by: cddbd v1.5.2PL0 Copyright (c) Steve Scherf et al.
# Submitted via: ExactAudioCopy v0.99pb5
#
DISCID=9709a00a
DTITLE=Cream  - Stepping Out (Oil Well RSC 005 CD)  
DYEAR=1900
DGENRE=
TTITLE0=N.S.U.
TTITLE1=Stepping Out
TTITLE2=Traintime
TTITLE3=Toad
TTITLE4=I'm So Glad
TTITLE5=Outside Woman Blues
TTITLE6=Born Under A Bad Sign
TTITLE7=Strange Brew
TTITLE8=Tales of Brave Ulysses
TTITLE9=Four Until Late
EXTD=
EXTT0=
EXTT1=
EXTT2=
EXTT3=
EXTT4=
EXTT5=
EXTT6=
EXTT7=
EXTT8=
EXTT9=
PLAYORDER=
